<?xml version="1.0" encoding="UTF-8" ?>
<svg version="1.1" width="1024" height="1024" xmlns="http://www.w3.org/2000/svg" shape-rendering="crispEdges">
<rect x="0" y="0" width="416" height="64" fill="#0E0C0C" />
<rect x="416" y="0" width="64" height="64" fill="#293F21" />
<rect x="480" y="0" width="64" height="64" fill="#3D6F43" />
<rect x="544" y="0" width="64" height="64" fill="#293F21" />
<rect x="608" y="0" width="416" height="64" fill="#0E0C0C" />
<rect x="0" y="64" width="384" height="64" fill="#0E0C0C" />
<rect x="384" y="64" width="64" height="64" fill="#293F21" />
<rect x="448" y="64" width="32" height="64" fill="#3D6F43" />
<rect x="480" y="64" width="64" height="64" fill="#C4F129" />
<rect x="544" y="64" width="32" height="64" fill="#3D6F43" />
<rect x="576" y="64" width="64" height="64" fill="#293F21" />
<rect x="640" y="64" width="384" height="64" fill="#0E0C0C" />
<rect x="0" y="128" width="352" height="32" fill="#0E0C0C" />
<rect x="352" y="128" width="64" height="64" fill="#293F21" />
<rect x="416" y="128" width="32" height="64" fill="#3D6F43" />
<rect x="448" y="128" width="32" height="64" fill="#C4F129" />
<rect x="480" y="128" width="64" height="64" fill="#8FD032" />
<rect x="544" y="128" width="32" height="64" fill="#C4F129" />
<rect x="576" y="128" width="32" height="64" fill="#3D6F43" />
<rect x="608" y="128" width="64" height="64" fill="#293F21" />
<rect x="672" y="128" width="352" height="32" fill="#0E0C0C" />
<rect x="0" y="160" width="128" height="32" fill="#0E0C0C" />
<rect x="128" y="160" width="96" height="64" fill="#FFFFFF" />
<rect x="224" y="160" width="128" height="32" fill="#0E0C0C" />
<rect x="672" y="160" width="128" height="32" fill="#0E0C0C" />
<rect x="800" y="160" width="96" height="64" fill="#FFFFFF" />
<rect x="896" y="160" width="128" height="32" fill="#0E0C0C" />
<rect x="0" y="192" width="96" height="192" fill="#0E0C0C" />
<rect x="96" y="192" width="32" height="128" fill="#FFFFFF" />
<rect x="224" y="192" width="32" height="96" fill="#FFFFFF" />
<rect x="256" y="192" width="64" height="32" fill="#0E0C0C" />
<rect x="320" y="192" width="64" height="32" fill="#293F21" />
<rect x="384" y="192" width="32" height="32" fill="#3D6F43" />
<rect x="416" y="192" width="192" height="384" fill="#CEAAED" />
<rect x="608" y="192" width="32" height="32" fill="#3D6F43" />
<rect x="640" y="192" width="64" height="32" fill="#293F21" />
<rect x="704" y="192" width="64" height="32" fill="#0E0C0C" />
<rect x="768" y="192" width="32" height="96" fill="#FFFFFF" />
<rect x="896" y="192" width="32" height="128" fill="#FFFFFF" />
<rect x="928" y="192" width="96" height="192" fill="#0E0C0C" />
<rect x="128" y="224" width="32" height="32" fill="#FFFFFF" />
<rect x="160" y="224" width="64" height="32" fill="#C9D4FD" />
<rect x="256" y="224" width="32" height="96" fill="#FFFFFF" />
<rect x="288" y="224" width="32" height="32" fill="#0E0C0C" />
<rect x="320" y="224" width="96" height="64" fill="#CEAAED" />
<rect x="608" y="224" width="96" height="64" fill="#CEAAED" />
<rect x="704" y="224" width="32" height="32" fill="#0E0C0C" />
<rect x="736" y="224" width="32" height="96" fill="#FFFFFF" />
<rect x="800" y="224" width="64" height="32" fill="#C9D4FD" />
<rect x="864" y="224" width="32" height="32" fill="#FFFFFF" />
<rect x="128" y="256" width="32" height="32" fill="#C9D4FD" />
<rect x="160" y="256" width="64" height="160" fill="#7864C6" />
<rect x="288" y="256" width="32" height="64" fill="#FFFFFF" />
<rect x="704" y="256" width="32" height="64" fill="#FFFFFF" />
<rect x="800" y="256" width="64" height="160" fill="#7864C6" />
<rect x="864" y="256" width="32" height="32" fill="#C9D4FD" />
<rect x="128" y="288" width="32" height="128" fill="#FFFFFF" />
<rect x="224" y="288" width="32" height="192" fill="#7864C6" />
<rect x="320" y="288" width="32" height="32" fill="#FFFFFF" />
<rect x="352" y="288" width="64" height="32" fill="#CEAAED" />
<rect x="608" y="288" width="64" height="32" fill="#CEAAED" />
<rect x="672" y="288" width="32" height="32" fill="#FFFFFF" />
<rect x="768" y="288" width="32" height="192" fill="#7864C6" />
<rect x="864" y="288" width="32" height="128" fill="#FFFFFF" />
<rect x="96" y="320" width="32" height="128" fill="#C9D4FD" />
<rect x="256" y="320" width="32" height="96" fill="#7864C6" />
<rect x="288" y="320" width="64" height="32" fill="#C9D4FD" />
<rect x="352" y="320" width="32" height="32" fill="#FFFFFF" />
<rect x="384" y="320" width="32" height="32" fill="#CEAAED" />
<rect x="608" y="320" width="32" height="32" fill="#CEAAED" />
<rect x="640" y="320" width="32" height="32" fill="#FFFFFF" />
<rect x="672" y="320" width="64" height="32" fill="#C9D4FD" />
<rect x="736" y="320" width="32" height="96" fill="#7864C6" />
<rect x="896" y="320" width="32" height="128" fill="#C9D4FD" />
<rect x="288" y="352" width="64" height="32" fill="#7864C6" />
<rect x="352" y="352" width="64" height="32" fill="#C9D4FD" />
<rect x="608" y="352" width="64" height="32" fill="#C9D4FD" />
<rect x="672" y="352" width="64" height="32" fill="#7864C6" />
<rect x="0" y="384" width="64" height="32" fill="#0E0C0C" />
<rect x="64" y="384" width="32" height="64" fill="#293F21" />
<rect x="288" y="384" width="128" height="128" fill="#CEAAED" />
<rect x="608" y="384" width="128" height="128" fill="#CEAAED" />
<rect x="928" y="384" width="32" height="64" fill="#293F21" />
<rect x="960" y="384" width="64" height="32" fill="#0E0C0C" />
<rect x="0" y="416" width="64" height="64" fill="#293F21" />
<rect x="128" y="416" width="32" height="64" fill="#C9D4FD" />
<rect x="160" y="416" width="32" height="32" fill="#FFFFFF" />
<rect x="192" y="416" width="32" height="64" fill="#7864C6" />
<rect x="256" y="416" width="32" height="96" fill="#CEAAED" />
<rect x="736" y="416" width="32" height="96" fill="#CEAAED" />
<rect x="800" y="416" width="32" height="64" fill="#7864C6" />
<rect x="832" y="416" width="32" height="32" fill="#FFFFFF" />
<rect x="864" y="416" width="32" height="64" fill="#C9D4FD" />
<rect x="960" y="416" width="64" height="64" fill="#293F21" />
<rect x="64" y="448" width="64" height="32" fill="#3D6F43" />
<rect x="160" y="448" width="32" height="32" fill="#C9D4FD" />
<rect x="832" y="448" width="32" height="32" fill="#C9D4FD" />
<rect x="896" y="448" width="64" height="32" fill="#3D6F43" />
<rect x="0" y="480" width="64" height="64" fill="#3D6F43" />
<rect x="64" y="480" width="64" height="32" fill="#C4F129" />
<rect x="128" y="480" width="128" height="32" fill="#CEAAED" />
<rect x="768" y="480" width="128" height="32" fill="#CEAAED" />
<rect x="896" y="480" width="64" height="32" fill="#C4F129" />
<rect x="960" y="480" width="64" height="64" fill="#3D6F43" />
<rect x="64" y="512" width="32" height="32" fill="#C4F129" />
<rect x="96" y="512" width="32" height="32" fill="#9C8BDB" />
<rect x="128" y="512" width="64" height="32" fill="#CEAAED" />
<rect x="192" y="512" width="32" height="32" fill="#7864C6" />
<rect x="224" y="512" width="128" height="32" fill="#494182" />
<rect x="352" y="512" width="64" height="32" fill="#CEAAED" />
<rect x="608" y="512" width="64" height="32" fill="#CEAAED" />
<rect x="672" y="512" width="128" height="32" fill="#494182" />
<rect x="800" y="512" width="32" height="32" fill="#7864C6" />
<rect x="832" y="512" width="64" height="32" fill="#CEAAED" />
<rect x="896" y="512" width="32" height="32" fill="#9C8BDB" />
<rect x="928" y="512" width="32" height="32" fill="#C4F129" />
<rect x="0" y="544" width="64" height="64" fill="#293F21" />
<rect x="64" y="544" width="64" height="32" fill="#3D6F43" />
<rect x="128" y="544" width="32" height="32" fill="#9C8BDB" />
<rect x="160" y="544" width="32" height="64" fill="#7864C6" />
<rect x="192" y="544" width="32" height="32" fill="#494182" />
<rect x="224" y="544" width="128" height="32" fill="#7864C6" />
<rect x="352" y="544" width="64" height="32" fill="#494182" />
<rect x="608" y="544" width="64" height="32" fill="#494182" />
<rect x="672" y="544" width="128" height="32" fill="#7864C6" />
<rect x="800" y="544" width="32" height="32" fill="#494182" />
<rect x="832" y="544" width="32" height="64" fill="#7864C6" />
<rect x="864" y="544" width="32" height="32" fill="#9C8BDB" />
<rect x="896" y="544" width="64" height="32" fill="#3D6F43" />
<rect x="960" y="544" width="64" height="64" fill="#293F21" />
<rect x="64" y="576" width="32" height="32" fill="#293F21" />
<rect x="96" y="576" width="64" height="64" fill="#CEAAED" />
<rect x="192" y="576" width="32" height="32" fill="#7864C6" />
<rect x="224" y="576" width="128" height="32" fill="#CEAAED" />
<rect x="352" y="576" width="64" height="32" fill="#7864C6" />
<rect x="416" y="576" width="32" height="32" fill="#494182" />
<rect x="448" y="576" width="128" height="160" fill="#CEAAED" />
<rect x="576" y="576" width="32" height="32" fill="#494182" />
<rect x="608" y="576" width="64" height="32" fill="#7864C6" />
<rect x="672" y="576" width="128" height="32" fill="#CEAAED" />
<rect x="800" y="576" width="32" height="32" fill="#7864C6" />
<rect x="864" y="576" width="64" height="64" fill="#CEAAED" />
<rect x="928" y="576" width="32" height="32" fill="#293F21" />
<rect x="0" y="608" width="64" height="416" fill="#0E0C0C" />
<rect x="64" y="608" width="32" height="32" fill="#CEAAED" />
<rect x="160" y="608" width="64" height="32" fill="#CEAAED" />
<rect x="224" y="608" width="96" height="96" fill="#FFFFFF" />
<rect x="320" y="608" width="64" height="32" fill="#CEAAED" />
<rect x="384" y="608" width="64" height="32" fill="#7864C6" />
<rect x="576" y="608" width="64" height="32" fill="#7864C6" />
<rect x="640" y="608" width="64" height="32" fill="#CEAAED" />
<rect x="704" y="608" width="96" height="96" fill="#FFFFFF" />
<rect x="800" y="608" width="64" height="32" fill="#CEAAED" />
<rect x="928" y="608" width="32" height="32" fill="#CEAAED" />
<rect x="960" y="608" width="64" height="416" fill="#0E0C0C" />
<rect x="64" y="640" width="32" height="384" fill="#0E0C0C" />
<rect x="96" y="640" width="96" height="32" fill="#9C8BDB" />
<rect x="192" y="640" width="32" height="64" fill="#C9D4FD" />
<rect x="320" y="640" width="32" height="96" fill="#FFFFFF" />
<rect x="352" y="640" width="96" height="32" fill="#CEAAED" />
<rect x="576" y="640" width="96" height="32" fill="#CEAAED" />
<rect x="672" y="640" width="32" height="96" fill="#FFFFFF" />
<rect x="800" y="640" width="32" height="64" fill="#C9D4FD" />
<rect x="832" y="640" width="96" height="32" fill="#9C8BDB" />
<rect x="928" y="640" width="32" height="384" fill="#0E0C0C" />
<rect x="96" y="672" width="64" height="352" fill="#0E0C0C" />
<rect x="160" y="672" width="32" height="32" fill="#9C8BDB" />
<rect x="352" y="672" width="32" height="32" fill="#FFFFFF" />
<rect x="384" y="672" width="64" height="64" fill="#CEAAED" />
<rect x="576" y="672" width="64" height="64" fill="#CEAAED" />
<rect x="640" y="672" width="32" height="32" fill="#FFFFFF" />
<rect x="832" y="672" width="32" height="32" fill="#9C8BDB" />
<rect x="864" y="672" width="64" height="352" fill="#0E0C0C" />
<rect x="160" y="704" width="32" height="320" fill="#0E0C0C" />
<rect x="192" y="704" width="32" height="32" fill="#9C8BDB" />
<rect x="224" y="704" width="96" height="32" fill="#C9D4FD" />
<rect x="352" y="704" width="32" height="32" fill="#C9D4FD" />
<rect x="640" y="704" width="32" height="32" fill="#C9D4FD" />
<rect x="704" y="704" width="96" height="32" fill="#C9D4FD" />
<rect x="800" y="704" width="32" height="32" fill="#9C8BDB" />
<rect x="832" y="704" width="32" height="320" fill="#0E0C0C" />
<rect x="192" y="736" width="32" height="288" fill="#0E0C0C" />
<rect x="224" y="736" width="32" height="32" fill="#9C8BDB" />
<rect x="256" y="736" width="96" height="32" fill="#C9D4FD" />
<rect x="352" y="736" width="32" height="64" fill="#9C8BDB" />
<rect x="384" y="736" width="32" height="32" fill="#CEAAED" />
<rect x="416" y="736" width="192" height="32" fill="#F1F2FF" />
<rect x="608" y="736" width="32" height="32" fill="#CEAAED" />
<rect x="640" y="736" width="32" height="64" fill="#9C8BDB" />
<rect x="672" y="736" width="96" height="32" fill="#C9D4FD" />
<rect x="768" y="736" width="32" height="32" fill="#9C8BDB" />
<rect x="800" y="736" width="32" height="288" fill="#0E0C0C" />
<rect x="224" y="768" width="32" height="256" fill="#0E0C0C" />
<rect x="256" y="768" width="96" height="32" fill="#9C8BDB" />
<rect x="384" y="768" width="64" height="96" fill="#F1F2FF" />
<rect x="448" y="768" width="128" height="32" fill="#7864C6" />
<rect x="576" y="768" width="64" height="96" fill="#F1F2FF" />
<rect x="672" y="768" width="96" height="32" fill="#9C8BDB" />
<rect x="768" y="768" width="32" height="256" fill="#0E0C0C" />
<rect x="256" y="800" width="64" height="224" fill="#0E0C0C" />
<rect x="320" y="800" width="32" height="32" fill="#9C8BDB" />
<rect x="352" y="800" width="32" height="64" fill="#C9D4FD" />
<rect x="448" y="800" width="32" height="96" fill="#F1F2FF" />
<rect x="480" y="800" width="64" height="32" fill="#7864C6" />
<rect x="544" y="800" width="32" height="96" fill="#F1F2FF" />
<rect x="640" y="800" width="32" height="64" fill="#C9D4FD" />
<rect x="672" y="800" width="32" height="32" fill="#9C8BDB" />
<rect x="704" y="800" width="64" height="224" fill="#0E0C0C" />
<rect x="320" y="832" width="32" height="192" fill="#0E0C0C" />
<rect x="480" y="832" width="64" height="64" fill="#F1F2FF" />
<rect x="672" y="832" width="32" height="192" fill="#0E0C0C" />
<rect x="352" y="864" width="32" height="32" fill="#293F21" />
<rect x="384" y="864" width="64" height="32" fill="#C9D4FD" />
<rect x="576" y="864" width="64" height="32" fill="#C9D4FD" />
<rect x="640" y="864" width="32" height="32" fill="#293F21" />
<rect x="352" y="896" width="32" height="128" fill="#0E0C0C" />
<rect x="384" y="896" width="32" height="64" fill="#293F21" />
<rect x="416" y="896" width="192" height="32" fill="#C9D4FD" />
<rect x="608" y="896" width="32" height="64" fill="#293F21" />
<rect x="640" y="896" width="32" height="128" fill="#0E0C0C" />
<rect x="416" y="928" width="32" height="96" fill="#293F21" />
<rect x="448" y="928" width="32" height="32" fill="#3D6F43" />
<rect x="480" y="928" width="64" height="32" fill="#C4F129" />
<rect x="544" y="928" width="32" height="32" fill="#3D6F43" />
<rect x="576" y="928" width="32" height="96" fill="#293F21" />
<rect x="384" y="960" width="32" height="64" fill="#0E0C0C" />
<rect x="448" y="960" width="32" height="64" fill="#293F21" />
<rect x="480" y="960" width="64" height="64" fill="#3D6F43" />
<rect x="544" y="960" width="32" height="64" fill="#293F21" />
<rect x="608" y="960" width="32" height="64" fill="#0E0C0C" />
</svg>